<svg xmlns="http://www.w3.org/2000/svg" width="20" height="18" viewBox="0 0 20 18">
    <path fill="#FFF" fill-rule="evenodd" d="M10 17.75a1.667 1.667 0 1 1 1.444-2.5h1.893c.916 0 1.663-.748 1.663-1.669V6.915a5 5 0 0 0-10 0V11.5a2.084 2.084 0 0 1-4.167 0V9c0-1.15.934-2.082 2.084-2.082h.416a6.667 6.667 0 0 1 13.333-.002l.417.002c1.15 0 2.084.932 2.084 2.082V11.5c0 1.15-.933 2.082-2.084 2.082h-.416a3.335 3.335 0 0 1-3.33 3.334h-1.893A1.666 1.666 0 0 1 10 17.75zM2.917 8.583A.417.417 0 0 0 2.5 9V11.5a.416.416 0 0 0 .833 0V8.583h-.416zM17.5 11.501V9a.417.417 0 0 0-.417-.416h-.416v3.334h.416c.23 0 .417-.186.417-.416zm-9.583-.418a1.25 1.25 0 1 1 0-2.5 1.25 1.25 0 0 1 0 2.5zm4.166 0a1.25 1.25 0 1 1 0-2.5 1.25 1.25 0 0 1 0 2.5z"/>
</svg>
