<svg height="18" viewBox="0 0 18 18" width="18" xmlns="http://www.w3.org/2000/svg"><path d="m3.805 2.782 13.255.812a.713.713 0 0 1 .678.865l-1.085 5.807a1.04 1.04 0 0 1 -.986.817h-9.945l.192.834h9.336a.833.833 0 1 1 0 1.666h-10a.833.833 0 0 1 -.812-.646l-2.41-10.445-1.303-.654a.833.833 0 0 1 .743-1.492l1.654.825a.833.833 0 0 1 .44.558zm11.31 6.634.79-4.224-11.709-.717 1.14 4.942h9.78zm-1.532 8.334a1.667 1.667 0 1 1 0-3.333 1.667 1.667 0 0 1 0 3.333zm-7.5 0a1.667 1.667 0 1 1 0-3.333 1.667 1.667 0 0 1 0 3.333z" fill="#7c8a9c" fill-rule="evenodd"/></svg>