<svg xmlns="http://www.w3.org/2000/svg" width="18" height="18" viewBox="0 0 18 18">
    <path fill="#7C8A9C" fill-rule="evenodd" d="M3.805 2.782l13.255.812a.713.713 0 0 1 .678.865l-1.085 5.807a1.04 1.04 0 0 1-.986.817H5.722l.192.834h9.336a.833.833 0 1 1 0 1.666h-10a.833.833 0 0 1-.812-.646L2.028 2.492.725 1.838A.833.833 0 0 1 1.468.346l1.654.825a.833.833 0 0 1 .44.558l.243 1.053zm11.31 6.634l.79-4.224-11.709-.717 1.14 4.942h9.78zm-1.532 8.334a1.667 1.667 0 1 1 0-3.333 1.667 1.667 0 0 1 0 3.333zm-7.5 0a1.667 1.667 0 1 1 0-3.333 1.667 1.667 0 0 1 0 3.333z"/>
</svg>
