<svg height="20" viewBox="0 0 18 20" width="18" xmlns="http://www.w3.org/2000/svg"><path d="m1.913 2.083.004 13.334 3.688-.001a6.24 6.24 0 0 1 -.355-2.083 6.248 6.248 0 0 1 3.13-5.416h-1.463a.833.833 0 0 1 -.833-.834v-5zm10.004 4.167h-4.167v-4.166zm.416 5.004a.833.833 0 1 0 -1.667 0v2.15l-.66-.66a.833.833 0 1 0 -1.179 1.179l2.084 2.083a.833.833 0 0 0 1.178 0l2.084-2.083a.833.833 0 1 0 -1.179-1.179l-.66.683v-2.173zm1.25-5.255c0-.226-.13-.547-.292-.708l-4.581-4.582a1.156 1.156 0 0 0 -.709-.292h-6.09c-.913 0-1.661.746-1.661 1.666v13.334c0 .918.747 1.666 1.668 1.666h4.582a6.25 6.25 0 1 0 7.084-9.644v-1.44zm2.5 7.334a4.583 4.583 0 1 0 -9.166 0 4.583 4.583 0 0 0 9.166 0z" fill="#fff" fill-rule="evenodd"/></svg>