<svg xmlns="http://www.w3.org/2000/svg" width="18" height="20" viewBox="0 0 18 20">
    <path fill="#FFF" fill-rule="evenodd" d="M1.913 2.083l.004 13.334 3.688-.001a6.24 6.24 0 0 1-.355-2.083 6.248 6.248 0 0 1 3.13-5.416H6.917a.833.833 0 0 1-.833-.834v-5H1.913zM11.917 6.25H7.75V2.084l4.167 4.166zm.416 5.004a.833.833 0 1 0-1.667 0v2.15l-.66-.66a.833.833 0 1 0-1.179 1.179l2.084 2.083a.833.833 0 0 0 1.178 0l2.084-2.083a.833.833 0 1 0-1.179-1.179l-.66.683v-2.173zm1.25-5.255c0-.226-.13-.547-.292-.708L8.71.709a1.156 1.156 0 0 0-.709-.292h-6.09C.998.417.25 1.163.25 2.083v13.334c0 .918.747 1.666 1.668 1.666H6.5a6.25 6.25 0 1 0 7.084-9.644v-1.44zm2.5 7.334a4.583 4.583 0 1 0-9.166 0 4.583 4.583 0 0 0 9.166 0z"/>
</svg>
