<svg xmlns="http://www.w3.org/2000/svg" width="16" height="18" viewBox="0 0 16 18">
    <path fill="#FFF" fill-rule="evenodd" d="M5.505 15.11a2.501 2.501 0 0 1 .828-4.86c.617 0 1.103.17 1.386.417.282 0 .46-.003.57-.003a2.5 2.5 0 0 1 3.878 2.086c0 1.38-1.065 2.168-1.667 2.354v.563h3.333V2.333H10.5v2.23c.602.186 1.667.973 1.667 2.354a2.5 2.5 0 0 1-3.878 2.086C8.179 9.003 8 9 7.719 9c-.283.247-.769.417-1.386.417a2.5 2.5 0 0 1-.828-4.86L5.5 2.333H2.167v13.334h3.337v-.558zm3.328.557v-1.25c0-.46.373-.834.834-.834a.833.833 0 1 0-.551-1.458.833.833 0 0 1-.552.208H7.436a.833.833 0 0 1-.552-.208.833.833 0 0 1 .282 2.292v1.25h1.667zM7.167 2.333V5.25c0 .46-.373.833-.834.833a.833.833 0 1 0 .551 1.459.833.833 0 0 1 .552-.209h1.128c.203 0 .4.075.552.209a.833.833 0 0 1-.282-2.292V2.333H7.166zm-6.667 0c0-.92.744-1.666 1.663-1.666h11.674c.919 0 1.663.748 1.663 1.666v13.334c0 .92-.744 1.666-1.663 1.666H2.163A1.666 1.666 0 0 1 .5 15.667V2.333z"/>
</svg>
