<svg xmlns="http://www.w3.org/2000/svg" width="20" height="18" viewBox="0 0 20 18">
    <path fill="#FFF" fill-rule="evenodd" d="M3.751 16.5H1.25C.559 16.5 0 15.94 0 15.254V7.746C0 7.058.559 6.5 1.249 6.5H3.75a1.25 1.25 0 0 1 1.197.89c.763.1 2.095.46 3.24 1.202l2.646-.009c1.13 0 2.018.637 2.705 1.667h2.711c2.12 0 3.747 1.27 3.747 2.494.005.721-1.252 1.843-2.862 2.77-1.988 1.144-4.287 1.832-6.714 1.82-2.394.012-4.39-.453-5.706-1.287a1.247 1.247 0 0 1-.964.453zm6.67-.833c4.578-.025 7.764-2.761 7.764-3.014 0-.253-.908-.736-1.935-.736h-1.885c.083.233.147.447.193.63a.833.833 0 0 1-.808 1.036H7.083a.833.833 0 1 1 0-1.666H12.5s-.555-1.667-1.666-1.667H7.917a.833.833 0 0 1-.496-.164c-.034-.025-1.147-.767-2.421-1v5.071c.95 1.066 3.299 1.521 5.421 1.51zM3.333 8.169l-1.666-.002v6.666h1.666V8.17zm12.5.831a2.5 2.5 0 1 1 0-5 2.5 2.5 0 0 1 0 5zm0-1.667a.833.833 0 1 0 0-1.666.833.833 0 0 0 0 1.666zM10 5.667a2.5 2.5 0 1 1 0-5 2.5 2.5 0 0 1 0 5zM10 4a.833.833 0 1 0 0-1.667A.833.833 0 0 0 10 4z"/>
</svg>
